<?xml version="1.0" encoding="UTF-8"?>
<svg version="1.1" xmlns="http://www.w3.org/2000/svg" width="500" height="500">
<path d="M0 0 C165 0 330 0 500 0 C500 165 500 330 500 500 C335 500 170 500 0 500 C0 335 0 170 0 0 Z " fill="#202020" transform="translate(0,0)"/>
<path d="M0 0 C1.30683085 3.92049255 0.38757508 5.51473945 -0.94921875 9.3984375 C-1.2700518 10.34464462 -1.2700518 10.34464462 -1.59736633 11.30996704 C-2.28565012 13.33463906 -2.98606589 15.35485048 -3.6875 17.375 C-4.59044072 20.00672218 -5.48869304 22.64003475 -6.38671875 25.2734375 C-6.60933884 25.92370407 -6.83195892 26.57397064 -7.06132507 27.24394226 C-9.17801965 33.45464279 -11.09807991 39.72054405 -13 46 C-13.92825131 48.9821081 -14.86940205 51.96005795 -15.8125 54.9375 C-16.06330322 55.73051514 -16.31410645 56.52353027 -16.57250977 57.34057617 C-19.40725498 66.29767435 -22.25779304 75.24975543 -25.10888672 84.20166016 C-26.57346255 88.80082951 -28.03666929 93.40043436 -29.5 98 C-30.08332661 99.83333547 -30.66665995 101.6666688 -31.25 103.5 C-31.53875 104.4075 -31.8275 105.315 -32.125 106.25 C-33 109 -33.875 111.75 -34.75 114.5 C-35.02254105 115.35658203 -35.29508209 116.21316406 -35.57588196 117.09570312 C-36.15882173 118.92775279 -36.74181239 120.75978626 -37.32487488 122.59179688 C-38.74047205 127.03993808 -40.15534989 131.48830346 -41.56762695 135.9375 C-45.85725713 149.44542035 -50.19275337 162.93832153 -54.53762817 176.42855835 C-60.14992433 193.86005617 -65.75854524 211.29287496 -71.28994751 228.75024414 C-71.80058445 230.36120637 -72.31210465 231.97188892 -72.82455444 233.58227539 C-73.5224598 235.7766612 -74.21687914 237.97211705 -74.91015625 240.16796875 C-75.29308838 241.37735107 -75.67602051 242.5867334 -76.07055664 243.83276367 C-76.86811636 246.55058407 -77.50354329 249.21387053 -78 252 C-78.66 252 -79.32 252 -80 252 C-80.16491943 251.40388916 -80.32983887 250.80777832 -80.49975586 250.19360352 C-96.55656555 192.60507984 -121.20007139 140.14693287 -174.83911133 109.32446289 C-198.03524797 96.44650016 -223.24734561 88.03855344 -249 82 C-246.81825102 79.81825102 -245.55724565 79.35929966 -242.66796875 78.4140625 C-241.78560547 78.12273437 -240.90324219 77.83140625 -239.99414062 77.53125 C-239.06794922 77.2321875 -238.14175781 76.933125 -237.1875 76.625 C-236.30384766 76.33367187 -235.42019531 76.04234375 -234.50976562 75.7421875 C-229.57131439 74.12325597 -224.61549139 72.57069136 -219.64453125 71.0546875 C-212.88948673 68.98643931 -206.19395541 66.75699532 -199.5 64.5 C-191.75258947 61.8878121 -183.99076944 59.36596323 -176.16992188 56.98242188 C-171.08477726 55.40643436 -166.04361651 53.703385 -161 52 C-154.88587781 49.93507219 -148.76715935 47.91270548 -142.59375 46.03125 C-135.85415083 43.9748288 -129.17666661 41.75116607 -122.5 39.5 C-114.71090942 36.87375887 -106.90873023 34.32640403 -99.04589844 31.92919922 C-94.6460189 30.58694677 -90.25916781 29.20509811 -85.875 27.8125 C-84.96049072 27.52205811 -84.04598145 27.23161621 -83.10375977 26.93237305 C-74.24964806 24.10536422 -65.43402821 21.16507561 -56.62646484 18.1965332 C-50.14386538 16.01848582 -43.63725706 13.95222715 -37.09594727 11.95776367 C-32.53799813 10.54771443 -28.01935144 9.02839399 -23.5 7.5 C-15.70036979 4.87950977 -7.88451272 2.35511419 0 0 Z " fill="#FDFDFD" transform="translate(347,150)"/>
</svg>
